<svg width="512" height="512" viewBox="0 0 512 512" fill="none" xmlns="http://www.w3.org/2000/svg">
<path d="M357.096 251.177C356.054 241.437 354.009 231.831 350.991 222.512C349.354 217.475 347.431 212.536 345.229 207.719C336.99 189.437 324.409 173.446 308.58 161.136C292.255 148.607 272.965 140.517 252.586 137.654C247.551 136.702 242.468 136.027 237.36 135.631C232.808 135.33 228.358 135.18 224.011 135.18H59.3173V403.553H256.199L261.166 399.2C267.106 397.889 272.948 396.169 278.65 394.052C289.446 390.096 299.575 384.517 308.688 377.507C317.591 370.589 325.45 362.425 332.025 353.267C349.413 329.183 358.107 301.229 358.107 269.402C358.122 263.313 357.784 257.228 357.096 251.177ZM321.152 316.744C315.378 331.227 306.283 344.152 294.6 354.477C282.283 365.126 267.295 372.214 251.25 374.978C246.288 375.809 241.369 376.411 236.492 376.784C231.616 377.157 227.401 377.362 223.849 377.398H85.4176V161.28H223.975C227.491 161.28 231.706 161.437 236.619 161.75C241.58 162.066 246.512 162.742 251.376 163.773C267.424 166.529 282.414 173.618 294.726 184.274C305.61 193.899 314.243 205.8 320.014 219.134C320.429 220.074 320.826 221.031 321.224 222.006C324.315 229.64 326.621 237.568 328.106 245.668C329.543 253.485 330.256 261.418 330.237 269.366C330.313 285.599 327.227 301.691 321.152 316.744Z" fill="#43B883"/>
<path d="M357.096 251.177C356.054 241.437 354.009 231.831 350.991 222.512C349.354 217.475 347.431 212.536 345.229 207.719C336.99 189.437 324.409 173.446 308.58 161.136C292.255 148.607 272.965 140.517 252.586 137.654C247.551 136.702 242.468 136.027 237.36 135.631C232.808 135.33 228.358 135.18 224.011 135.18H59.3173V403.553H256.199L261.166 399.2C267.106 397.889 272.948 396.169 278.65 394.052C289.446 390.096 299.575 384.517 308.688 377.507C317.591 370.589 325.45 362.425 332.025 353.267C349.413 329.183 358.107 301.229 358.107 269.402C358.122 263.313 357.784 257.228 357.096 251.177ZM321.152 316.744C315.378 331.227 306.283 344.152 294.6 354.477C282.283 365.126 267.295 372.214 251.25 374.978C246.288 375.809 241.369 376.411 236.492 376.784C231.616 377.157 227.401 377.362 223.849 377.398H85.4176V161.28H223.975C227.491 161.28 231.706 161.437 236.619 161.75C241.58 162.066 246.512 162.742 251.376 163.773C267.424 166.529 282.414 173.618 294.726 184.274C305.61 193.899 314.243 205.8 320.014 219.134C320.429 220.074 320.826 221.031 321.224 222.006C324.315 229.64 326.621 237.568 328.106 245.668C329.543 253.485 330.256 261.418 330.237 269.366C330.313 285.599 327.227 301.691 321.152 316.744Z" fill="url(#paint0_linear_4_3)" fill-opacity="0.5"/>
<path d="M449.558 303.848C437.444 276.32 419.984 255.302 397.177 240.791C383.034 231.889 367.361 225.691 350.955 222.512C340.726 220.463 330.335 219.333 319.905 219.134C318.243 219.134 316.564 219.134 314.866 219.134C282.991 219.134 255.609 226.227 232.717 240.412C209.826 254.597 192.239 274.917 179.957 301.373C169.77 323.229 163.803 348.606 162.057 377.507C161.66 383.576 161.479 389.789 161.479 396.147C161.479 398.658 161.479 401.15 161.479 403.607H467.819C467.819 364.652 461.732 331.399 449.558 303.848ZM190.036 377.507C192.564 338.564 203.336 307.665 222.35 284.81C244.289 258.402 275.14 245.199 314.902 245.199C319.399 245.199 323.771 245.361 328.033 245.722C337.9 246.44 347.651 248.288 357.096 251.231C376.164 257.108 393.085 268.458 405.756 283.87C424.541 306.412 435.596 337.624 438.919 377.507H190.036Z" fill="url(#paint1_linear_4_3)"/>
<defs>
<linearGradient id="paint0_linear_4_3" x1="342.379" y1="181.261" x2="-35.7796" y2="435.401" gradientUnits="userSpaceOnUse">
<stop stop-color="#35495E" stop-opacity="0"/>
<stop offset="1" stop-color="#35495E"/>
</linearGradient>
<linearGradient id="paint1_linear_4_3" x1="467.653" y1="239.37" x2="64" y2="484.284" gradientUnits="userSpaceOnUse">
<stop stop-color="#21A2F1"/>
<stop offset="1" stop-color="#006EB1"/>
</linearGradient>
</defs>
</svg>
